<?xml version="1.0" encoding="UTF-8"?>
<svg width="28px" viewBox="0 0 39 69" version="1.1" xmlns="http://www.w3.org/2000/svg" xmlns:xlink="http://www.w3.org/1999/xlink">
    <g stroke="none" stroke-width="1" fill="none" fill-rule="evenodd">
        <g transform="translate(-1.000000, 15.000000)" fill-rule="nonzero">
            <path d="M34.71,16.95 L34.54,16.95 C33.8941502,16.9488976 33.25472,17.0781442 32.66,17.33 C32.5227824,15.6652251 31.5282082,14.1921748 30.0353661,13.4426904 C28.542524,12.6932061 26.7670595,12.775553 25.35,13.66 C24.1369519,11.5800525 21.568407,10.7238708 19.35,11.66 L19.35,5.07 C19.35,2.39970323 17.1852968,0.235 14.515,0.235 C11.8447032,0.235 9.68,2.39970323 9.68,5.07 L9.68,22.87 L9.47,22.55 L9.37,22.41 C8.54917261,21.4071431 7.35352735,20.7840995 6.06130884,20.6858606 C4.76909034,20.5876218 3.49299883,21.0227556 2.53,21.89 C0.710934566,23.5407052 0.446684019,26.304506 1.92,28.27 L12.63,44.89 L12.63,51.78 C12.63,52.6084271 13.3015729,53.28 14.13,53.28 L34,53.28 C34.8284271,53.28 35.5,52.6084271 35.5,51.78 L35.5,44.92 L39.31,39.56 C39.4915602,39.3061866 39.5894382,39.0020657 39.59,38.69 L39.59,21.78 C39.5873811,20.4911257 39.070793,19.256529 38.1547386,18.3498604 C37.2386842,17.4431917 35.9988329,16.9393455 34.71,16.95 Z" id="Path" fill="#000000"></path>
            <path d="M36.54,38.22 L32.73,43.58 C32.5484398,43.8338134 32.4505618,44.1379343 32.45,44.45 L32.45,50.28 L15.63,50.28 L15.63,44.45 C15.6292551,44.1625827 15.5459508,43.8814304 15.39,43.64 L4.39,26.64 L4.31,26.53 C3.88206909,25.9860422 3.81720875,25.2401865 4.1448199,24.630526 C4.47243104,24.0208655 5.13021455,23.6633344 5.82,23.72 C6.2710814,23.7520101 6.69140995,23.9603781 6.99,24.3 L9.9,28.84 C10.2459502,29.446901 10.9650566,29.7346426 11.6341724,29.5339079 C12.3032881,29.3331732 12.7452531,28.6971101 12.7,28 L12.7,5.07 C12.7,4.05655748 13.5215575,3.235 14.535,3.235 C15.5484425,3.235 16.37,4.05655748 16.37,5.07 L16.37,23.28 C16.37,24.1084271 17.0415729,24.78 17.87,24.78 C18.6984271,24.78 19.37,24.1084271 19.37,23.28 L19.37,16.11 C19.37,15.0965575 20.1915575,14.275 21.205,14.275 C22.2184425,14.275 23.04,15.0965575 23.04,16.11 L23.04,23.28 C23.04,24.1084271 23.7115729,24.78 24.54,24.78 C25.3684271,24.78 26.04,24.1084271 26.04,23.28 L26.04,17.76 C26.04,16.7465575 26.8615575,15.925 27.875,15.925 C28.8884425,15.925 29.71,16.7465575 29.71,17.76 L29.71,25.55 C29.71,26.3784271 30.3815729,27.05 31.21,27.05 C32.0384271,27.05 32.71,26.3784271 32.71,25.55 L32.71,23.85 C32.71,23.85 32.71,23.85 32.71,23.78 L32.71,21.78 C32.71,20.7693189 33.5293189,19.95 34.54,19.95 L34.71,19.95 C35.7206811,19.95 36.54,20.7693189 36.54,21.78 L36.54,38.22 Z" id="Path" fill="#FFFFFF"></path>
        </g>
    </g>
</svg>
